<svg width="160" height="160" viewBox="0 0 84 80" fill="none" xmlns="http://www.w3.org/2000/svg">
<path d="M36 8.04883C20.2177 9.99878 8 23.4548 8 39.7646C8.00005 54.493 17.9633 66.8934 31.5176 70.5957C33.8383 71.2296 35.9588 69.35 35.959 66.9443V39.7646H43.959V75.7236C43.959 77.9328 42.1681 79.7236 39.959 79.7236C17.8903 79.7236 6.01093e-05 61.8333 0 39.7646C0 19.032 15.7898 1.98777 36 0V8.04883Z" fill="#E7EEEE"/>
<path d="M47.959 71.6748C63.7413 69.7249 75.959 56.2688 75.959 39.959C75.9589 25.2306 65.9957 12.8302 52.4414 9.12793C50.1207 8.49406 48.0001 10.3736 48 12.7793V39.959H40V4C40 1.79086 41.7909 0 44 0C66.0686 0 83.9589 17.8904 83.959 39.959C83.959 60.6916 68.1692 77.7359 47.959 79.7236V71.6748Z" fill="#E7EEEE"/>
<path d="M25.7783 27.8057C27.8527 27.8113 30.053 28.6287 31.8643 29.4756C33.78 30.3714 35.7366 31.5327 37.4531 32.6445C39.1812 33.7639 40.7327 34.8774 41.8486 35.707C41.8921 35.7394 41.9344 35.7721 41.9766 35.8037L41.9404 35.8809L48.5312 40.3486C48.5257 40.3525 48.5202 40.3565 48.5146 40.3604C49.1236 40.7841 49.7792 41.23 50.4629 41.6729C52.0403 42.6946 53.6979 43.6679 55.21 44.375C56.8265 45.1308 57.8706 45.3853 58.3496 45.3867C61.8062 45.3958 64.1025 42.892 64.1094 40.4023C64.1161 37.9126 61.8336 35.3963 58.377 35.3867C57.8981 35.3854 56.8524 35.6336 55.2314 36.3809C54.1697 36.8704 53.0361 37.4904 51.9082 38.166L45.3252 34.0625C45.7654 33.7669 46.2237 33.465 46.6953 33.1631C48.4179 32.0604 50.3811 30.909 52.3018 30.0234C54.1174 29.1864 56.3214 28.3812 58.3955 28.3867C65.1518 28.4052 71.1279 33.5222 71.1094 40.4209C71.0908 47.3197 65.0873 52.4046 58.3311 52.3867C56.2568 52.3811 54.0573 51.5636 52.2461 50.7168C50.3302 49.821 48.3729 48.6598 46.6562 47.5479C44.9284 46.4286 43.3776 45.3159 42.2617 44.4863C42.0652 44.3402 41.8821 44.2011 41.7129 44.0732C41.6711 44.1039 41.6279 44.1337 41.585 44.165L36.7178 40.8887C36.8198 40.8621 36.9082 40.8289 36.9775 40.7812C36.3686 40.3575 34.3313 38.9625 33.6475 38.5195C32.0699 37.4977 30.4116 36.5245 28.8994 35.8174C27.2827 35.0614 26.2386 34.807 25.7598 34.8057C22.3033 34.7966 20.0069 37.3004 20 39.79C19.9933 42.2797 22.276 44.7959 25.7324 44.8057C26.2113 44.8069 27.2571 44.5588 28.8779 43.8115C29.9726 43.3068 31.143 42.6619 32.3057 41.9619L38.3799 46.3965C38.065 46.6051 37.7436 46.8184 37.4141 47.0293C35.6916 48.1319 33.7292 49.2835 31.8086 50.1689C29.9928 51.0061 27.7882 51.8112 25.7139 51.8057C18.9576 51.7872 12.9815 46.6702 13 39.7715C13.0186 32.8728 19.0222 27.7878 25.7783 27.8057Z" fill="#E7EEEE"/>
</svg>
