<svg width="109" height="43" viewBox="0 0 109 43" fill="none" xmlns="http://www.w3.org/2000/svg">
<path d="M18.6169 36.7367C26.0519 37.7761 33.2677 33.1327 35.2605 25.6954C37.2512 18.2649 33.3321 10.6438 26.3852 7.82053L22.511 22.2792L18.8633 21.3018L23.2567 4.90562C23.5266 3.89828 24.5625 3.30021 25.5698 3.57013C35.6325 6.26659 41.6042 16.61 38.9082 26.6728C36.375 36.1268 27.0921 41.9702 17.6335 40.407L18.6169 36.7367Z" fill="#477675"/>
<path d="M20.9385 6.26336C13.5036 5.22395 6.2878 9.86733 4.295 17.3046C2.30427 24.7351 6.2234 32.3562 13.1703 35.1795L17.0445 20.7208L20.6922 21.6982L16.2988 38.0944C16.0289 39.1017 14.993 39.6998 13.9857 39.4299C3.92295 36.7334 -2.04872 26.39 0.647309 16.3272C3.1805 6.87317 12.4634 1.02985 21.922 2.59303L20.9385 6.26336Z" fill="#477675"/>
<path d="M12.1295 15.8086C13.1087 15.8113 14.1475 16.1969 15.0026 16.5967C15.907 17.0196 16.8309 17.5679 17.6412 18.0928C18.4568 18.6211 19.1887 19.1465 19.7155 19.5381C19.736 19.5534 19.7561 19.569 19.776 19.584L19.7594 19.6211L22.8698 21.7295C22.8673 21.7312 22.8654 21.7337 22.8629 21.7354C23.1503 21.9354 23.4592 22.1465 23.7819 22.3555C24.5266 22.8379 25.3102 23.2971 26.024 23.6309C26.7867 23.9874 27.2794 24.1077 27.5055 24.1084C29.1373 24.1127 30.222 22.9302 30.2252 21.7549C30.2283 20.5796 29.1499 19.3922 27.5182 19.3877C27.292 19.3872 26.7985 19.5039 26.0338 19.8565C25.5324 20.0877 24.9972 20.3811 24.4645 20.7002L21.3571 18.7627C21.5649 18.6233 21.7809 18.4804 22.0035 18.3379C22.8166 17.8174 23.7434 17.2735 24.65 16.8555C25.5071 16.4604 26.5479 16.0805 27.527 16.083C30.7163 16.0918 33.5375 18.5071 33.5289 21.7637C33.5201 25.0204 30.6861 27.4216 27.4967 27.4131C26.5176 27.4104 25.4796 27.0238 24.6246 26.6241C23.7202 26.2012 22.7963 25.6529 21.986 25.128C21.1702 24.5996 20.4376 24.0743 19.9108 23.6826C19.818 23.6137 19.7328 23.5467 19.653 23.4864C19.6327 23.5012 19.6113 23.5151 19.5905 23.5303L17.2936 21.9844C17.3419 21.9718 17.3838 21.9562 17.4166 21.9336C17.1291 21.7336 16.1671 21.0753 15.8444 20.8662C15.0997 20.3839 14.317 19.9247 13.6031 19.5909C12.8399 19.234 12.3468 19.1139 12.1207 19.1133C10.489 19.1091 9.40514 20.2915 9.40198 21.4668C9.39914 22.642 10.4765 23.8295 12.108 23.834C12.3341 23.8346 12.8282 23.7171 13.5934 23.3643C14.1098 23.1261 14.662 22.8215 15.2106 22.4912L18.0778 24.585C17.9293 24.6834 17.778 24.7844 17.6227 24.8838C16.8096 25.4043 15.8828 25.9473 14.9762 26.3653C14.119 26.7604 13.0785 27.1413 12.0992 27.1387C8.90979 27.13 6.08855 24.7138 6.09729 21.4571C6.10628 18.2006 8.94026 15.8003 12.1295 15.8086Z" fill="#477675"/>
<path d="M77.6555 41.21C76.3505 42.17 74.5805 41.105 76.2005 39.275C76.7555 38.645 77.5505 38.27 78.3605 38.225C78.3905 37.925 78.4055 37.61 78.4205 37.265C78.4355 36.95 78.4655 36.695 78.4805 36.335C78.2405 36.755 77.7755 37.265 77.5955 37.46C77.0705 38.015 76.2155 37.985 75.8255 37.31C75.1955 36.185 75.9155 34.685 76.5605 34.085C77.4605 33.26 78.3455 33.47 78.5105 33.62C78.6005 33.74 78.6755 33.95 78.3905 33.785C78.1055 33.62 77.6405 33.755 77.2055 34.355C76.7705 34.955 76.2605 36.05 76.5155 37.055C76.6055 37.4 77.0105 37.565 77.4005 37.235C77.5955 37.07 78.0905 36.485 78.3455 35.945C78.3755 35.87 78.4055 35.735 78.4505 35.6C78.4055 34.805 78.5105 34.535 78.6905 34.37C78.8855 34.22 79.0055 34.295 79.0805 34.55C79.1855 35.03 79.2305 35.93 79.2305 37.085C79.2305 37.52 79.2005 37.91 79.1555 38.27C79.5605 38.345 79.9505 38.495 80.3105 38.72C80.6105 38.93 80.4455 39.2 80.1455 38.99C79.9205 38.825 79.5605 38.63 79.1105 38.54C78.8405 40.07 78.1505 40.85 77.6555 41.21ZM76.3355 39.53C75.2405 40.76 76.3355 41.735 77.2955 41C78.0005 40.46 78.2255 39.725 78.3455 38.465C77.7005 38.51 76.9955 38.795 76.3355 39.53ZM83.8824 33.335C84.1074 33.365 84.0624 33.545 83.8674 33.515C83.4174 33.455 82.8774 33.56 82.4274 33.89C81.5574 34.52 81.0474 37.46 82.1874 37.31C82.8174 37.22 83.7024 35.465 83.8674 35C84.0024 34.64 84.0624 34.16 84.4524 33.635C84.8424 33.11 84.9474 33.77 84.7974 34.235C84.6474 34.7 84.4824 36.545 84.5274 36.995C84.5424 37.16 84.6624 37.52 84.8874 37.52C85.3974 37.52 86.6124 35.945 87.0774 34.835C87.2274 34.46 87.3774 34.715 87.2874 34.955C86.8074 36.215 85.9224 37.37 85.3374 37.73C84.8724 38.03 84.3624 38.105 83.9574 37.58C83.6874 37.22 83.7474 36.425 83.7324 36.29C83.7174 36.155 83.7474 35.96 83.6124 36.125C83.4774 36.29 82.8624 37.58 81.9924 37.76C80.4174 38.09 79.9374 34.895 82.0374 33.605C82.5324 33.29 83.3274 33.26 83.8824 33.335ZM90.3336 37.73C89.8686 38.03 89.3736 38.105 88.8786 37.685C88.7136 37.535 88.6086 37.28 88.6086 36.905C88.6086 36.5 88.7586 35.795 88.9236 35.195C89.0136 34.895 89.1336 34.52 88.3836 34.31C87.7986 34.145 87.7686 34.19 87.5136 34.655C87.2136 35.225 87.1086 35.465 86.9136 35.78C86.7936 35.99 86.4936 35.96 86.7186 35.555C87.0936 34.865 87.3186 34.31 87.3786 34.1C87.4536 33.89 87.3636 33.89 87.2436 33.59C87.0936 33.215 87.0186 32.42 87.5736 32.36C88.1736 32.3 88.0386 33.005 88.0236 33.275C87.9936 33.545 88.0236 33.77 88.1886 33.83C89.4186 34.265 89.8536 34.505 89.6886 35.27C89.5686 35.84 89.4786 36.335 89.4786 36.635C89.4786 36.77 89.4936 36.89 89.5086 36.995C89.5236 37.16 89.6436 37.52 89.8686 37.52C90.3786 37.52 91.5936 35.945 92.0586 34.835C92.2086 34.46 92.3586 34.715 92.2686 34.955C91.7886 36.215 90.9036 37.37 90.3336 37.73ZM95.1191 37.28C94.9841 36.935 94.8941 36.605 94.8641 36.065C94.8491 36.065 94.8191 36.08 94.7891 36.125C94.6541 36.29 94.0391 37.58 93.1691 37.76C91.5941 38.09 91.1141 34.94 93.2141 33.605C93.5441 33.395 94.0841 33.26 94.6391 33.335C94.8641 33.365 94.8191 33.56 94.6241 33.515C94.3391 33.455 93.8891 33.665 93.6041 33.89C92.7641 34.55 92.2241 37.46 93.3641 37.31C93.8591 37.235 94.5191 36.14 94.8491 35.435C94.8491 35.12 94.8791 34.745 94.9091 34.295C94.9991 33.08 95.5691 29.99 97.0691 30.125C98.4791 30.275 96.4691 33.395 95.7341 34.385C95.6741 35.39 95.7191 37.19 96.1541 37.415C96.7541 37.745 98.0741 35.945 98.5391 34.835C98.6891 34.46 98.8391 34.715 98.7491 34.955C98.2691 36.215 97.3841 37.37 96.8141 37.73C95.9291 38.3 95.3741 37.955 95.1191 37.28ZM95.7341 33.845C96.4841 32.885 97.7891 30.5 97.0541 30.41C96.1541 30.29 95.8241 33.155 95.7341 33.845ZM100.709 37.88C99.7791 38.435 98.4591 37.82 98.1741 36.8C98.0541 36.35 98.1141 35.675 98.2641 35.09C98.5191 34.13 99.6591 32.87 100.724 33.35C101.219 33.59 101.114 34.445 100.604 35.045C100.094 35.645 99.4641 36.05 98.9991 36.185C98.9991 36.35 99.0141 36.5 99.0291 36.635C99.1041 37.175 99.7041 37.88 100.514 37.52C100.874 37.355 101.234 37.025 101.549 36.62C101.969 36.11 102.329 35.45 102.584 34.835C102.734 34.46 102.884 34.715 102.794 34.955C102.539 35.63 102.224 36.26 101.849 36.785C101.519 37.25 101.144 37.625 100.709 37.88ZM99.3141 34.595C99.1341 35.06 99.0291 35.495 98.9991 35.9C99.2841 35.75 99.8541 35.45 100.304 34.955C100.784 34.4 100.859 33.71 100.574 33.575C100.019 33.305 99.5691 33.935 99.3141 34.595ZM103.041 38.03C102.441 38.015 102.471 37.34 102.486 36.275C102.516 35.06 102.816 33.995 102.951 33.53C103.146 32.93 103.611 33.335 103.581 33.65C103.551 33.86 103.461 34.565 103.401 35.21C103.431 35.21 103.476 35.15 103.521 35.03C103.596 34.805 104.271 33.26 105.261 33.485C106.566 33.785 106.026 35.75 106.026 36.695C106.026 37.265 106.041 37.565 106.341 37.565C106.626 37.565 107.181 37.145 107.421 36.395C107.526 35.975 107.811 36.185 107.736 36.53C107.571 37.145 107.226 37.655 106.791 37.91C105.831 38.465 105.141 37.895 105.201 36.455C105.246 35.33 105.786 34.115 104.976 33.845C104.736 33.77 104.181 34.265 103.791 35.18C103.536 35.825 103.416 36.275 103.356 36.59C103.356 37.04 103.356 37.49 103.341 37.67C103.311 37.925 103.326 38.045 103.041 38.03Z" fill="#393640"/>
<path d="M50.7955 26V25.04H53.1955V20L48.8275 10.16H47.6755V9.2H52.4275L56.2195 18.608L58.3795 9.2H62.0035V10.16H60.8755L56.7955 20V25.04H59.1955V26H50.7955ZM63.5237 24.536C62.3557 23.304 61.7717 21.792 61.7717 20C61.7717 18.208 62.3557 16.704 63.5237 15.488C64.7077 14.256 66.2437 13.64 68.1317 13.64C70.0197 13.64 71.5477 14.256 72.7157 15.488C73.8997 16.704 74.4917 18.208 74.4917 20C74.4917 21.792 73.8997 23.304 72.7157 24.536C71.5477 25.752 70.0197 26.36 68.1317 26.36C66.2437 26.36 64.7077 25.752 63.5237 24.536ZM66.1637 16.16C65.7157 17.152 65.4917 18.432 65.4917 20C65.4917 21.568 65.7157 22.856 66.1637 23.864C66.6117 24.856 67.2757 25.352 68.1557 25.352C69.0357 25.352 69.6997 24.856 70.1477 23.864C70.5957 22.856 70.8197 21.568 70.8197 20C70.8197 18.432 70.5957 17.152 70.1477 16.16C69.6997 15.152 69.0357 14.648 68.1557 14.648C67.2757 14.648 66.6117 15.152 66.1637 16.16ZM86.1115 29.168H81.6715C79.3195 29.168 78.1435 28.184 78.1435 26.216C78.1435 25.144 78.7355 23.936 79.9195 22.592C78.6235 21.648 77.9755 20.344 77.9755 18.68C77.9755 17.256 78.4955 16.064 79.5355 15.104C80.5755 14.128 81.9355 13.64 83.6155 13.64C84.8315 13.64 85.9115 13.92 86.8555 14.48C87.5435 13.856 88.0155 13.04 88.2715 12.032L89.2075 12.272C88.9195 13.392 88.3915 14.32 87.6235 15.056C88.7115 16.048 89.2555 17.256 89.2555 18.68C89.2555 20.104 88.7355 21.304 87.6955 22.28C86.6555 23.24 85.2955 23.72 83.6155 23.72C82.4635 23.72 81.4635 23.488 80.6155 23.024C80.0555 23.808 79.7755 24.4 79.7755 24.8C79.7755 25.6 80.2395 26 81.1675 26H85.6075C87.9595 26 89.1355 26.864 89.1355 28.592C89.1355 29.824 88.5515 31.08 87.3835 32.36L86.8075 31.808C87.2715 31.248 87.5035 30.768 87.5035 30.368C87.5035 29.984 87.3755 29.688 87.1195 29.48C86.8795 29.272 86.5435 29.168 86.1115 29.168ZM82.1755 15.776C81.8555 16.528 81.6955 17.496 81.6955 18.68C81.6955 19.864 81.8555 20.832 82.1755 21.584C82.5115 22.336 82.9995 22.712 83.6395 22.712C84.2795 22.712 84.7595 22.336 85.0795 21.584C85.4155 20.832 85.5835 19.864 85.5835 18.68C85.5835 17.496 85.4155 16.528 85.0795 15.776C84.7595 15.024 84.2795 14.648 83.6395 14.648C82.9995 14.648 82.5115 15.024 82.1755 15.776ZM105.266 14V23.336C105.266 23.768 105.37 24.112 105.578 24.368C105.786 24.608 106.106 24.728 106.538 24.728C106.97 24.728 107.466 24.496 108.026 24.032L108.458 24.608C107.178 25.776 105.898 26.36 104.618 26.36C103.098 26.36 102.162 25.648 101.81 24.224C100.978 25.648 99.7543 26.36 98.1383 26.36C96.2983 26.36 94.8983 25.768 93.9383 24.584C92.9783 23.384 92.4983 21.864 92.4983 20.024C92.4983 18.168 93.0103 16.64 94.0343 15.44C95.0743 14.24 96.5223 13.64 98.3783 13.64C99.8023 13.64 100.898 14.208 101.666 15.344V14H105.266ZM96.8903 16.352C96.4423 17.248 96.2183 18.464 96.2183 20C96.2183 21.536 96.4423 22.752 96.8903 23.648C97.3383 24.544 98.0183 24.992 98.9303 24.992C99.8583 24.992 100.562 24.544 101.042 23.648C101.538 22.736 101.786 21.52 101.786 20C101.786 18.48 101.538 17.272 101.042 16.376C100.562 15.464 99.8583 15.008 98.9303 15.008C98.0183 15.008 97.3383 15.456 96.8903 16.352Z" fill="#22403F"/>
</svg>
