<svg width="24" height="24" viewBox="0 0 24 24" fill="none" xmlns="http://www.w3.org/2000/svg">
<path d="M5.3112 9.80021L11.2485 15.6912C11.4479 15.8889 11.7182 16 12 16C12.2818 16 12.5521 15.8889 12.7515 15.6912L18.6888 9.80021C18.8374 9.65272 18.9386 9.46483 18.9796 9.26028C19.0206 9.05574 18.9995 8.84373 18.9191 8.65106C18.8387 8.45838 18.7025 8.29369 18.5277 8.1778C18.353 8.06192 18.1475 8.00004 17.9373 8H6.06267C5.85248 8.00004 5.64703 8.06192 5.47227 8.1778C5.29752 8.29369 5.16133 8.45838 5.0809 8.65106C5.00047 8.84373 4.97942 9.05574 5.02041 9.26028C5.0614 9.46483 5.1626 9.65272 5.3112 9.80021Z" fill="#8B8598"/>
</svg>
