<?xml version="1.0" encoding="UTF-8"?>
<svg id="_レイヤー_2" data-name="レイヤー 2" xmlns="http://www.w3.org/2000/svg" viewBox="0 0 40 40.01">
  <defs>
    <style>
      .cls-1 {
        fill: #6ca7a6;
      }
    </style>
  </defs>
  <g id="_レイヤー_1-2" data-name="レイヤー 1">
    <g>
      <path class="cls-1" d="M39.29,33.49l-6.49-8.56c2.05-1.83,3.53-4.22,4.26-6.94.99-3.69.48-7.53-1.43-10.84-1.91-3.3-4.99-5.67-8.67-6.66-3.69-.99-7.53-.48-10.84,1.43-3.65,2.11-6.13,5.63-6.9,9.75-.28-.03-.56-.04-.85-.04C3.76,11.63,0,15.38,0,20s3.76,8.38,8.38,8.38c2.46,0,4.67-1.06,6.2-2.75,2.12,1.63,4.65,2.62,7.34,2.88.46.04.92.07,1.38.07,1.51,0,3-.24,4.42-.71l4.17,9.9c.4.95,1.19,1.66,2.23,2.01.45.15.93.23,1.4.23.79,0,1.57-.2,2.25-.6,1.1-.63,1.9-1.75,2.15-2.98.22-1.07,0-2.11-.63-2.93h0ZM8.37,27.09c-3.91,0-7.09-3.18-7.09-7.09s3.18-7.09,7.09-7.09,7.09,3.18,7.09,7.09c0,3.91-3.18,7.09-7.09,7.09ZM13.9,13.71c.2-3.16,1.93-5.96,4.67-7.55,2.17-1.25,4.7-1.59,7.12-.94,2.42.65,4.45,2.2,5.7,4.37,2.59,4.48,1.05,10.23-3.44,12.82-3.68,2.12-8.26,1.53-11.26-1.43.04-.33.06-.66.06-.99,0-2.5-1.1-4.76-2.85-6.29h0ZM15.37,24.61c.44-.66.78-1.39,1.02-2.16,1.5,1.26,3.35,2.1,5.3,2.4.54.08,1.07.12,1.61.12,1.86,0,3.67-.49,5.31-1.43,5.1-2.94,6.85-9.49,3.91-14.58-1.43-2.47-3.73-4.24-6.48-4.97-2.75-.74-5.63-.36-8.1,1.07-2.89,1.67-4.79,4.52-5.24,7.78-.68-.41-1.42-.72-2.2-.93.7-3.74,2.96-6.95,6.28-8.86,3.01-1.74,6.51-2.2,9.86-1.3,3.35.9,6.15,3.05,7.89,6.06s2.2,6.51,1.3,9.86c-.9,3.35-3.05,6.15-6.06,7.89-4.55,2.62-10.25,2.23-14.4-.93h0ZM28.92,27.41c.51-.22,1.01-.47,1.49-.75.49-.28.95-.59,1.39-.92l1.57,2.07-3.44,1.99-1.01-2.39ZM38.66,36.17c-.18.88-.75,1.67-1.53,2.12-.78.45-1.75.55-2.6.27-.68-.23-1.2-.69-1.45-1.29l-2.64-6.27,3.72-2.15,4.11,5.42c.39.52.53,1.19.39,1.9h0Z"/>
      <path class="cls-1" d="M21.77,8.71c3.08-.82,6.25,1.01,7.07,4.08.08.29.34.48.62.48.06,0,.11,0,.17-.02.34-.09.55-.45.46-.79-1.01-3.76-4.89-6-8.65-5-.34.09-.55.45-.46.79.09.35.45.55.79.46h0Z"/>
      <path class="cls-1" d="M11.49,16.89c-.25-.25-.66-.25-.91,0l-2.2,2.2-2.2-2.2c-.25-.25-.66-.25-.91,0-.25.25-.25.66,0,.91l2.2,2.2-2.2,2.2c-.25.25-.25.66,0,.91.13.13.29.19.46.19s.33-.06.46-.19l2.2-2.2,2.2,2.2c.13.13.29.19.46.19s.33-.06.46-.19c.25-.25.25-.66,0-.91l-2.2-2.2,2.2-2.2c.25-.25.25-.66,0-.91h0Z"/>
    </g>
  </g>
</svg>