<svg width="24" height="24" viewBox="0 0 24 24" fill="none" xmlns="http://www.w3.org/2000/svg">
<path d="M10.2089 16.2H12.1242M12.1242 16.2H14.1281M12.1242 16.2V7.8M12.1242 7.8H9.00002C8.66865 7.8 8.40002 8.06863 8.40002 8.4V9.28235M12.1242 7.8H15C15.3314 7.8 15.6 8.06863 15.6 8.4V9.52941M4.80002 21.6H19.2C20.5255 21.6 21.6 20.5255 21.6 19.2V4.8C21.6 3.47452 20.5255 2.4 19.2 2.4H4.80002C3.47454 2.4 2.40002 3.47452 2.40002 4.8V19.2C2.40002 20.5255 3.47454 21.6 4.80002 21.6Z" stroke="#CAC8D0" stroke-width="2" stroke-linecap="round" stroke-linejoin="round"/>
</svg>
